<svg width="476" height="452" viewBox="0 0 476 452" fill="none" xmlns="http://www.w3.org/2000/svg">
<path d="M27.5223 0.596191L475.241 51.28L468.328 451.386L0.644531 451.386L27.5223 0.596191Z" fill="#141414"/>
<path d="M62.5977 99.7574L404.902 83.5991L425.546 413.801L96.5111 356.512L62.5977 99.7574Z" fill="white"/>
<path d="M133.362 120.67L389.514 144.449L389.514 375.826L117.984 332.163L133.362 120.67Z" fill="#141414"/>
<path d="M170.518 141.137L345.889 162.787L366.319 289.864L165.742 268.824L170.518 141.137Z" fill="white"/>
<path d="M165.742 284.406L397.02 324.658L395.655 342.396L169.153 318.518L165.742 284.406Z" fill="white"/>
<path d="M194.981 156.145L330.793 168.111L334.191 269.396L186.828 262.574L194.981 156.145Z" fill="#141414"/>
<path d="M231.23 177.596L335.147 176.611L341.414 196.746L241.526 193.253L231.23 177.596Z" fill="white"/>
<path d="M171.199 207.802L290.877 205.265L298.095 257.115L183.056 248.119L171.199 207.802Z" fill="white"/>
<path d="M293.25 251.794L188.186 244.971L190.915 210.859L287.11 209.496L293.25 251.794Z" fill="#141414"/>
<path d="M288.474 210.859L196.373 218.364L197.055 210.177L287.793 208.812L288.474 210.859Z" fill="white"/>
<path d="M293.324 246.884L194.456 237.561L195.829 222.138L290.641 221.397L293.324 246.884Z" fill="white"/>
<path d="M296.059 253.709L193.05 247.646L193.738 242.509L294.683 248.248L296.059 253.709Z" fill="white"/>
<path d="M281.113 241.866L202.534 236.823L203.767 224.046L275.745 223.48L281.113 241.866Z" fill="#141414"/>
<path d="M250.801 228.011L221.868 227.096L221.977 225.731L250.686 226.793L250.801 228.011Z" fill="white"/>
<path d="M271.727 238.071L212.744 234.267L215.806 228.579L269.49 230.558L271.727 238.071Z" fill="white"/>
<path d="M254.738 235.558L221.685 233.448L222.055 230.422L252.271 231.121L254.738 235.558Z" fill="#141414"/>
<path d="M236.194 234.961L220.888 234.161L221.147 231.44L236.991 232.236L236.194 234.961Z" fill="white"/>
<path d="M261.546 236.329L241.76 235.647L241.403 232.201L260.866 232.918L261.546 236.329Z" fill="white"/>
<path d="M268.039 236.138L251.731 235.096L251.933 233.286L266.85 233.504L268.039 236.138Z" fill="#141414"/>
<path d="M257.664 235.658L253.41 235.368L253.402 234.021L257.805 234.305L257.664 235.658Z" fill="white"/>
<path d="M265.291 236.213L261.638 236.1L261.46 234.4L265.055 234.534L265.291 236.213Z" fill="white"/>
</svg>
