<svg width="1055" height="1055" viewBox="0 0 1055 1055" fill="none" xmlns="http://www.w3.org/2000/svg">
<path d="M105.574 610.998C105.574 604.371 110.947 598.998 117.574 598.998H974.574C981.202 598.998 986.574 604.371 986.574 610.998V815.998C986.574 822.625 981.202 827.998 974.574 827.998H117.574C110.947 827.998 105.574 822.625 105.574 815.998V610.998Z" fill="#9366FF"/>
<path d="M59 749.325C55.6863 743.585 57.6528 736.246 63.3923 732.933L850.823 278.309C856.562 274.996 863.901 276.962 867.215 282.702L969.715 460.237C973.029 465.976 971.062 473.316 965.323 476.629L177.892 931.252C172.153 934.566 164.814 932.6 161.5 926.86L59 749.325Z" fill="#5DC1EC"/>
<path d="M115.533 916.039C109.793 912.725 107.827 905.386 111.141 899.647L592.58 65.7699C595.893 60.0304 603.232 58.0639 608.972 61.3776L786.507 163.878C792.247 167.191 794.213 174.53 790.899 180.27L309.46 1014.15C306.147 1019.89 298.808 1021.85 293.068 1018.54L115.533 916.039Z" fill="#E9D94B"/>
<path d="M254.816 1024.84C248.189 1024.82 242.834 1019.43 242.855 1012.8L245.947 43C245.968 36.3726 251.358 31.0173 257.985 31.0384L462.984 31.6921C469.612 31.7132 474.967 37.1029 474.946 43.7303L471.854 1013.53C471.832 1020.16 466.443 1025.52 459.815 1025.5L254.816 1024.84Z" fill="#A0D468"/>
<circle cx="358.495" cy="728.915" r="15.9169" fill="#434A54"/>
</svg>
