<svg width="1668" height="310" viewBox="0 0 1668 310" fill="none" xmlns="http://www.w3.org/2000/svg">
<g clip-path="url(#clip0_1345_41)">
<path d="M236 39H282L181 154L299 310H206.4L133.9 215.2L50.9 310H4.89999L111.9 187L-1.10001 39H93.8L159.3 125.6L236 39ZM219.9 283H245.4L80.4 65H53L219.9 283Z" fill="black"/>
</g>
<path d="M437.364 301.636C418.03 301.636 400.818 299 385.727 293.727C370.636 288.515 357.879 280.848 347.455 270.727C337.03 260.667 329.091 248.364 323.636 233.818C318.182 219.273 315.455 202.727 315.455 184.182C315.455 165.879 318.182 149.273 323.636 134.364C329.152 119.455 337.182 106.667 347.727 96C358.273 85.2727 371.152 77.0303 386.364 71.2727C401.636 65.5151 419.03 62.6364 438.545 62.6364C456.606 62.6364 472.727 65.2727 486.909 70.5455C501.152 75.8182 513.212 83.3333 523.091 93.0909C533.03 102.788 540.576 114.333 545.727 127.727C550.939 141.061 553.515 155.818 553.455 172C553.515 183.152 552.545 193.394 550.545 202.727C548.545 212.061 545.394 220.212 541.091 227.182C536.848 234.091 531.273 239.576 524.364 243.636C517.455 247.636 509.091 249.909 499.273 250.455C492.242 251 486.545 250.485 482.182 248.909C477.818 247.333 474.485 245 472.182 241.909C469.939 238.758 468.485 235.091 467.818 230.909H466.727C465.273 234.545 462.424 237.848 458.182 240.818C453.939 243.727 448.758 246 442.636 247.636C436.576 249.212 430.121 249.788 423.273 249.364C416.121 248.939 409.333 247.273 402.909 244.364C396.545 241.455 390.879 237.242 385.909 231.727C381 226.212 377.121 219.394 374.273 211.273C371.485 203.152 370.061 193.758 370 183.091C370.061 172.545 371.545 163.364 374.455 155.545C377.424 147.727 381.333 141.152 386.182 135.818C391.091 130.485 396.545 126.303 402.545 123.273C408.545 120.242 414.576 118.303 420.636 117.455C427.485 116.424 433.97 116.424 440.091 117.455C446.212 118.485 451.364 120.152 455.545 122.455C459.788 124.758 462.424 127.242 463.455 129.909H464.727V119.727H493.182V208.455C493.242 212.636 494.182 215.879 496 218.182C497.818 220.485 500.273 221.636 503.364 221.636C507.545 221.636 511.03 219.788 513.818 216.091C516.667 212.394 518.788 206.727 520.182 199.091C521.636 191.455 522.364 181.727 522.364 169.909C522.364 158.515 520.848 148.515 517.818 139.909C514.848 131.242 510.667 123.879 505.273 117.818C499.939 111.697 493.727 106.727 486.636 102.909C479.545 99.0909 471.848 96.303 463.545 94.5455C455.303 92.7879 446.818 91.9091 438.091 91.9091C423 91.9091 409.818 94.2121 398.545 98.8182C387.273 103.364 377.879 109.758 370.364 118C362.848 126.242 357.212 135.909 353.455 147C349.758 158.03 347.879 170.061 347.818 183.091C347.879 197.455 349.879 210.182 353.818 221.273C357.818 232.303 363.697 241.576 371.455 249.091C379.212 256.606 388.788 262.303 400.182 266.182C411.576 270.061 424.667 272 439.455 272C446.424 272 453.242 271.485 459.909 270.455C466.576 269.485 472.606 268.273 478 266.818C483.394 265.424 487.727 264.061 491 262.727L500 289.091C496.182 291.273 491 293.303 484.455 295.182C477.97 297.121 470.636 298.667 462.455 299.818C454.333 301.03 445.97 301.636 437.364 301.636ZM433.182 219.455C440.576 219.455 446.455 218.03 450.818 215.182C455.242 212.333 458.394 208.121 460.273 202.545C462.212 196.909 463.121 189.97 463 181.727C462.939 174.455 462 168.303 460.182 163.273C458.424 158.182 455.364 154.333 451 151.727C446.697 149.061 440.697 147.727 433 147.727C426.273 147.727 420.545 149.152 415.818 152C411.152 154.848 407.576 158.848 405.091 164C402.667 169.091 401.424 175.091 401.364 182C401.424 188.424 402.455 194.515 404.455 200.273C406.455 205.97 409.758 210.606 414.364 214.182C418.97 217.697 425.242 219.455 433.182 219.455ZM630.659 250.273C620.053 250.273 610.447 247.545 601.841 242.091C593.295 236.576 586.508 228.485 581.477 217.818C576.508 207.091 574.023 193.939 574.023 178.364C574.023 162.364 576.598 149.061 581.75 138.455C586.902 127.788 593.75 119.818 602.295 114.545C610.902 109.212 620.326 106.545 630.568 106.545C638.386 106.545 644.902 107.879 650.114 110.545C655.386 113.152 659.629 116.424 662.841 120.364C666.114 124.242 668.598 128.061 670.295 131.818H671.477V61.8182H710.114V248H671.932V225.636H670.295C668.477 229.515 665.902 233.364 662.568 237.182C659.295 240.939 655.023 244.061 649.75 246.545C644.538 249.03 638.174 250.273 630.659 250.273ZM642.932 219.455C649.174 219.455 654.447 217.758 658.75 214.364C663.114 210.909 666.447 206.091 668.75 199.909C671.114 193.727 672.295 186.485 672.295 178.182C672.295 169.879 671.144 162.667 668.841 156.545C666.538 150.424 663.205 145.697 658.841 142.364C654.477 139.03 649.174 137.364 642.932 137.364C636.568 137.364 631.205 139.091 626.841 142.545C622.477 146 619.174 150.788 616.932 156.909C614.689 163.03 613.568 170.121 613.568 178.182C613.568 186.303 614.689 193.485 616.932 199.727C619.235 205.909 622.538 210.758 626.841 214.273C631.205 217.727 636.568 219.455 642.932 219.455ZM805.591 250.727C791.227 250.727 778.864 247.818 768.5 242C758.197 236.121 750.258 227.818 744.682 217.091C739.106 206.303 736.318 193.545 736.318 178.818C736.318 164.455 739.106 151.848 744.682 141C750.258 130.152 758.106 121.697 768.227 115.636C778.409 109.576 790.348 106.545 804.045 106.545C813.258 106.545 821.833 108.03 829.773 111C837.773 113.909 844.742 118.303 850.682 124.182C856.682 130.061 861.348 137.455 864.682 146.364C868.015 155.212 869.682 165.576 869.682 177.455V188.091H751.773V164.091H833.227C833.227 158.515 832.015 153.576 829.591 149.273C827.167 144.97 823.803 141.606 819.5 139.182C815.258 136.697 810.318 135.455 804.682 135.455C798.803 135.455 793.591 136.818 789.045 139.545C784.561 142.212 781.045 145.818 778.5 150.364C775.955 154.848 774.652 159.848 774.591 165.364V188.182C774.591 195.091 775.864 201.061 778.409 206.091C781.015 211.121 784.682 215 789.409 217.727C794.136 220.455 799.742 221.818 806.227 221.818C810.53 221.818 814.47 221.212 818.045 220C821.621 218.788 824.682 216.97 827.227 214.545C829.773 212.121 831.712 209.152 833.045 205.636L868.864 208C867.045 216.606 863.318 224.121 857.682 230.545C852.106 236.909 844.894 241.879 836.045 245.455C827.258 248.97 817.106 250.727 805.591 250.727ZM1011.14 148.182L975.682 150.364C975.076 147.333 973.773 144.606 971.773 142.182C969.773 139.697 967.136 137.727 963.864 136.273C960.652 134.758 956.803 134 952.318 134C946.318 134 941.258 135.273 937.136 137.818C933.015 140.303 930.955 143.636 930.955 147.818C930.955 151.152 932.288 153.97 934.955 156.273C937.621 158.576 942.197 160.424 948.682 161.818L973.955 166.909C987.53 169.697 997.652 174.182 1004.32 180.364C1010.98 186.545 1014.32 194.667 1014.32 204.727C1014.32 213.879 1011.62 221.909 1006.23 228.818C1000.89 235.727 993.561 241.121 984.227 245C974.955 248.818 964.258 250.727 952.136 250.727C933.652 250.727 918.924 246.879 907.955 239.182C897.045 231.424 890.652 220.879 888.773 207.545L926.864 205.545C928.015 211.182 930.803 215.485 935.227 218.455C939.652 221.364 945.318 222.818 952.227 222.818C959.015 222.818 964.47 221.515 968.591 218.909C972.773 216.242 974.894 212.818 974.955 208.636C974.894 205.121 973.409 202.242 970.5 200C967.591 197.697 963.106 195.939 957.045 194.727L932.864 189.909C919.227 187.182 909.076 182.455 902.409 175.727C895.803 169 892.5 160.424 892.5 150C892.5 141.03 894.924 133.303 899.773 126.818C904.682 120.333 911.561 115.333 920.409 111.818C929.318 108.303 939.742 106.545 951.682 106.545C969.318 106.545 983.197 110.273 993.318 117.727C1003.5 125.182 1009.44 135.333 1011.14 148.182ZM1073.8 207.818L1073.89 161.364H1079.52L1124.25 108.364H1168.7L1108.61 178.545H1099.43L1073.8 207.818ZM1038.7 248V61.8182H1077.43V248H1038.7ZM1125.98 248L1084.89 187.182L1110.7 159.818L1171.34 248H1125.98ZM1188.43 248V61.8182H1227.16V131.818H1228.34C1230.04 128.061 1232.49 124.242 1235.7 120.364C1238.98 116.424 1243.22 113.152 1248.43 110.545C1253.7 107.879 1260.25 106.545 1268.07 106.545C1278.25 106.545 1287.64 109.212 1296.25 114.545C1304.86 119.818 1311.73 127.788 1316.89 138.455C1322.04 149.061 1324.61 162.364 1324.61 178.364C1324.61 193.939 1322.1 207.091 1317.07 217.818C1312.1 228.485 1305.31 236.576 1296.7 242.091C1288.16 247.545 1278.58 250.273 1267.98 250.273C1260.46 250.273 1254.07 249.03 1248.8 246.545C1243.58 244.061 1239.31 240.939 1235.98 237.182C1232.64 233.364 1230.1 229.515 1228.34 225.636H1226.61V248H1188.43ZM1226.34 178.182C1226.34 186.485 1227.49 193.727 1229.8 199.909C1232.1 206.091 1235.43 210.909 1239.8 214.364C1244.16 217.758 1249.46 219.455 1255.7 219.455C1262.01 219.455 1267.34 217.727 1271.7 214.273C1276.07 210.758 1279.37 205.909 1281.61 199.727C1283.92 193.485 1285.07 186.303 1285.07 178.182C1285.07 170.121 1283.95 163.03 1281.7 156.909C1279.46 150.788 1276.16 146 1271.8 142.545C1267.43 139.091 1262.07 137.364 1255.7 137.364C1249.4 137.364 1244.07 139.03 1239.7 142.364C1235.4 145.697 1232.1 150.424 1229.8 156.545C1227.49 162.667 1226.34 169.879 1226.34 178.182ZM1424.73 108.364V137.455H1340.64V108.364H1424.73ZM1359.73 74.9091H1398.45V205.091C1398.45 208.667 1399 211.455 1400.09 213.455C1401.18 215.394 1402.7 216.758 1404.64 217.545C1406.64 218.333 1408.94 218.727 1411.55 218.727C1413.36 218.727 1415.18 218.576 1417 218.273C1418.82 217.909 1420.21 217.636 1421.18 217.455L1427.27 246.273C1425.33 246.879 1422.61 247.576 1419.09 248.364C1415.58 249.212 1411.3 249.727 1406.27 249.909C1396.94 250.273 1388.76 249.03 1381.73 246.182C1374.76 243.333 1369.33 238.909 1365.45 232.909C1361.58 226.909 1359.67 219.333 1359.73 210.182V74.9091ZM1449.95 248V108.364H1486.86V133H1488.5C1491.41 124.818 1496.26 118.364 1503.05 113.636C1509.83 108.909 1517.95 106.545 1527.41 106.545C1536.98 106.545 1545.14 108.939 1551.86 113.727C1558.59 118.455 1563.08 124.879 1565.32 133H1566.77C1569.62 125 1574.77 118.606 1582.23 113.818C1589.74 108.97 1598.62 106.545 1608.86 106.545C1621.89 106.545 1632.47 110.697 1640.59 119C1648.77 127.242 1652.86 138.939 1652.86 154.091V248H1614.23V161.727C1614.23 153.97 1612.17 148.152 1608.05 144.273C1603.92 140.394 1598.77 138.455 1592.59 138.455C1585.56 138.455 1580.08 140.697 1576.14 145.182C1572.2 149.606 1570.23 155.455 1570.23 162.727V248H1532.68V160.909C1532.68 154.061 1530.71 148.606 1526.77 144.545C1522.89 140.485 1517.77 138.455 1511.41 138.455C1507.11 138.455 1503.23 139.545 1499.77 141.727C1496.38 143.848 1493.68 146.848 1491.68 150.727C1489.68 154.545 1488.68 159.03 1488.68 164.182V248H1449.95Z" fill="black"/>
<defs>
<clipPath id="clip0_1345_41">
<rect width="300" height="271" fill="white" transform="translate(0 39)"/>
</clipPath>
</defs>
</svg>
