<?xml version="1.0" encoding="utf-8"?>
<svg width="256px" height="256px" viewBox="0 0 256 256" version="1.1" xmlns:xlink="http://www.w3.org/1999/xlink" xmlns="http://www.w3.org/2000/svg">
  <defs>
    <path d="M0 0L215 0L215 215L0 215L0 0Z" id="path_1" />
    <rect width="256" height="256" id="artboard_1" />
    <clipPath id="clip_1">
      <use xlink:href="#artboard_1" clip-rule="evenodd" />
    </clipPath>
    <clipPath id="mask_1">
      <use xlink:href="#path_1" />
    </clipPath>
  </defs>
  <g id="carla" clip-path="url(#clip_1)">
    <use xlink:href="#artboard_1" stroke="none" fill="#000000" />
    <g id="猫咪-(1)" transform="translate(58 20.9375)">
      <path d="M0 0L215 0L215 215L0 215L0 0Z" id="Background" fill="none" fill-rule="evenodd" stroke="none" />
      <g clip-path="url(#mask_1)">
        <path d="M148.686 31.12C151.904 15.6018 148.686 1.45463 148.686 1.45463C145.759 -4.20592 139.124 8.47992 139.124 8.47992L130.146 8.28675C123.902 0.283045 121.949 0.089878 121.949 0.089878C117.072 -0.107486 120.582 27.8005 120.582 27.8005C119.022 34.8279 107.897 36.3879 107.897 36.3879C60.8653 44.78 68.2811 104.499 68.2811 104.499C55.4021 121.088 31.9536 106.945 20.8572 102.742C8.30156 97.9883 3.83359 100.947 2.12451 102.549C-4.35698 108.612 5.78203 112.123 8.75928 112.696C16.0638 114.101 21.6929 115.316 25.7388 116.988C40.182 122.957 51.6921 121.869 51.6921 121.869C64.9637 122.26 71.4053 117.382 71.4053 117.382C72.7722 120.7 74.2524 121.141 75.699 121.283C82.3968 121.947 102.631 121.283 102.631 121.283C111.802 125.968 115.119 119.333 115.119 119.333L129.562 119.526C130.343 121.09 132.489 121.869 132.489 121.869C142.053 123.429 143.418 121.869 143.418 121.869C148.885 118.745 143.027 115.625 143.027 115.625C138.343 114.451 138.931 112.891 138.931 112.891C138.931 112.891 139.246 107.617 138.442 98.1584C137.883 91.5551 136.405 84.2674 139.126 81.4707C142.542 77.9602 145.878 69.3161 147.128 64.8838C152.158 47.0119 146.97 39.3925 148.686 31.12L148.686 31.12ZM118.703 111.306C121.046 109.549 122.411 101.938 122.411 101.938C124.754 103.111 126.512 111.306 126.512 111.306C121.63 112.478 118.703 111.306 118.703 111.306L118.703 111.306Z" transform="translate(28.03418 45.875)" id="Shape" fill="#FFFFFF" fill-rule="evenodd" stroke="none" />
      </g>
    </g>
    <g id="carlajs" fill="#FFFFFF" transform="translate(89 180)">
      <path d="M93.0566 14.4844Q94.5332 14.4844 94.5332 16.3711Q94.5332 18.0527 92.749 24.3691Q91.6211 28.3477 91.0059 33.1465Q90.3906 37.9453 90.3906 40.6729Q90.3906 44.0566 90.8213 47.3994Q90.9033 48.0352 90.9033 48.3223Q90.9033 49.3477 90.206 50.0859Q89.5088 50.8242 88.7295 50.8242Q87.6426 50.8242 87.2222 49.4707Q86.8018 48.1172 86.8018 45.1025Q86.8018 38.2324 88.4526 28.0811Q90.1035 17.9297 91.0776 16.207Q92.0518 14.4844 93.0566 14.4844ZM128.269 16.043L128.33 16.043Q128.904 16.043 130.053 16.4531Q131.201 16.8633 131.56 17.1401Q131.919 17.417 131.919 18.0732Q131.919 19.3447 130.75 20.2983Q129.581 21.252 129.007 21.252Q128.022 21.252 127.284 20.3906Q126.546 19.5293 126.546 18.668Q126.546 16.4531 128.269 16.043ZM143.116 41.4727Q146.397 43.1748 146.397 44.5078Q145.782 45.6357 143.178 46.3945Q140.573 47.1533 138.297 47.1533Q138.03 47.1533 137.189 46.9482Q136.328 46.7432 136.021 46.7432Q135.262 46.7432 134.513 47.1123Q133.765 47.4814 133.765 48.2607Q133.765 50.5166 137.087 50.5166Q141.024 50.5166 145.352 48.7427Q149.679 46.9688 149.679 43.8311Q149.679 42.1289 148.294 40.8677Q146.91 39.6064 144.593 38.499Q141.722 37.1455 140.614 36.2124Q139.507 35.2793 139.507 34.1309Q139.507 32.2441 142.645 30.7471Q145.782 29.25 146.808 29.25Q147.013 29.25 147.669 29.5371Q148.325 29.8447 148.551 29.8447Q148.858 29.8447 149.402 29.3936Q149.945 28.9424 149.945 28.3066Q149.945 26.8916 149.197 26.3174Q148.448 25.7432 146.787 25.7432Q144.203 25.7432 140.112 28.4297Q136.021 31.1162 136.021 35.1973Q136.021 36.7764 137.487 38.0581Q138.953 39.3398 143.116 41.4727ZM24.1504 50.373Q21.0742 50.373 19.4233 48.6094Q17.7725 46.8457 17.7725 43.667Q17.7725 38.3145 22.0176 32.3774Q26.2627 26.4404 29.9131 26.4404Q31.5742 26.4404 32.7739 28.2349Q33.9736 30.0293 33.9736 32.0391Q33.9736 33.249 33.4507 34.1206Q32.9277 34.9922 32.3945 34.9922Q31.2051 34.9922 30.7129 32.5928Q30.1592 30.0088 29.1133 30.0088Q26.9805 30.0088 24.0684 35.0742Q21.1562 40.1396 21.1562 43.626Q21.1562 47.1123 25.1143 47.1123Q28.1289 47.1123 32.21 44.2822Q33.6455 43.2773 34.3223 43.2773Q35.0195 43.2773 35.0195 44.0771Q35.0195 45.6357 31.3486 48.0044Q27.6777 50.373 24.1504 50.373ZM53.6611 41.7393Q50.79 45.5947 47.9805 47.5225Q45.1709 49.4502 42.833 49.4502Q41.2539 49.4502 40.1055 48.1172Q38.957 46.7842 38.957 44.6924Q38.957 39.2988 43.7764 33.0747Q48.5957 26.8506 53.3535 26.8506Q55.0762 26.8506 55.917 28.8193Q56.1836 29.4756 56.7578 29.4756Q58.3984 29.4756 58.3984 30.7471Q58.3984 31.3828 58.1934 32.4902Q57.0859 38.54 57.0859 41.0215Q57.0859 45.9844 58.9726 46.9688Q59.875 47.4609 59.875 48.1787Q59.875 48.8145 58.9932 49.4604Q58.1113 50.1064 57.291 50.1064Q55.7119 50.1064 54.6865 47.9326Q53.6611 45.7588 53.6611 41.7393ZM106.038 47.5225Q108.848 45.5947 111.719 41.7393Q111.719 45.7588 112.744 47.9326Q113.77 50.1064 115.349 50.1064Q116.169 50.1064 117.051 49.4604Q117.933 48.8145 117.933 48.1787Q117.933 47.4609 117.03 46.9688Q115.144 45.9844 115.144 41.0215Q115.144 38.54 116.251 32.4902Q116.456 31.3828 116.456 30.7471Q116.456 29.4756 114.815 29.4756Q114.241 29.4756 113.975 28.8193Q113.134 26.8506 111.411 26.8506Q106.653 26.8506 101.834 33.0747Q97.0146 39.2988 97.0146 44.6924Q97.0146 46.7842 98.1631 48.1172Q99.3115 49.4502 100.891 49.4502Q103.229 49.4502 106.038 47.5225ZM119.963 62.2266Q117.522 62.2266 115.236 60.186Q112.949 58.1455 112.949 56.6689Q112.949 56.2588 113.236 55.8589Q113.523 55.459 113.667 55.459Q113.811 55.459 114.303 55.8691Q117.522 58.6992 119.491 58.6992Q121.111 58.6992 122.28 57.1509Q123.449 55.6025 123.962 51.4087Q124.475 47.2148 124.926 38.376Q125.233 31.998 125.469 30.2754Q125.705 28.5527 126.443 27.8657Q127.182 27.1787 128.33 27.1787Q128.925 27.1787 129.448 27.6401Q129.971 28.1016 129.971 28.7578Q129.971 29.127 129.827 29.7627Q128.33 36.2432 127.879 46.6406Q127.592 52.916 126.71 55.9307Q125.828 58.9453 123.993 60.5859Q122.157 62.2266 119.963 62.2266ZM69.124 40.0371Q68.8369 40.6934 68.6318 41.0625L68.6318 40.5088L68.6523 39.75Q68.8574 35.9971 69.0625 35.1152Q69.2266 34.3564 69.2881 33.6592Q69.3701 33.0439 69.8418 31.4238Q70.2519 29.9678 70.2519 29.168Q70.2519 28.6143 69.8726 28.1323Q69.4932 27.6504 68.7344 27.6504Q67.9551 27.6504 67.2886 28.1836Q66.6221 28.7168 66.4067 29.332Q66.1914 29.9473 66.0478 31.5264Q65.9043 32.9619 65.8428 33.3516Q65.4736 35.7305 65.3506 39.6064Q65.248 42.8877 65.248 43.8516Q65.248 47.3994 65.6992 48.8965Q66.1504 50.3936 67.1553 50.3936Q68.2012 50.3936 68.7754 49.8809Q69.3496 49.3682 69.5547 47.7686Q70.375 41.5547 74.1484 36.3867Q77.9219 31.2188 80.0547 31.2188Q80.8545 31.2188 81.5928 31.9775Q82.3105 32.7363 83.1719 32.7363Q83.9922 32.7363 84.3921 32.2236Q84.792 31.7109 84.792 31.0752Q84.792 29.6397 83.6641 28.563Q82.5361 27.4863 80.7519 27.4863Q79.8701 27.4863 78.9268 27.8247Q77.9834 28.1631 76.8247 29.0244Q75.666 29.8857 74.2612 31.5469Q72.8564 33.208 71.6875 35.0229Q70.5185 36.8379 69.124 40.0371ZM52.4101 30.1934Q49.7031 30.1934 46.1143 35.269Q42.5254 40.3447 42.5254 43.6875Q42.5254 46.0459 44.084 46.0459Q46.3398 46.0459 50.3389 41.4932Q54.3379 36.9404 54.3379 33.126Q54.3379 30.1934 52.4101 30.1934ZM104.172 35.269Q107.761 30.1934 110.468 30.1934Q112.396 30.1934 112.396 33.126Q112.396 36.9404 108.396 41.4932Q104.397 46.0459 102.142 46.0459Q100.583 46.0459 100.583 43.6875Q100.583 40.3447 104.172 35.269Z" />
    </g>
  </g>
</svg>